<?xml version="1.0" encoding="UTF-8"?>
<mxfile host="app.diagrams.net" modified="2025-10-20T07:50:15.336Z" agent="MCP Flowchart Server" etag="1" version="22.1.16" type="device">
  <diagram name="Flowchart" id="698v3a8qh">
    <mxGraphModel dx="1422" dy="794" grid="1" gridSize="10" guides="1" tooltips="1" connect="1" arrows="1" fold="1" page="1" pageScale="1" pageWidth="1169" pageHeight="827" math="0" shadow="0">
  <root>
    <mxCell id="0" />
    <mxCell id="1" parent="0" />
    <mxCell id="start" value="Start" style="ellipse;whiteSpace=wrap;html=1;aspect=fixed;fillColor=#d5e8d4;strokeColor=#82b366;" vertex="1" parent="1">
      <mxGeometry x="-525" y="0" width="120" height="60" as="geometry" />
    </mxCell>
    <mxCell id="init" value="count = 1" style="rounded=1;whiteSpace=wrap;html=1;fillColor=#dae8fc;strokeColor=#6c8ebf;" vertex="1" parent="1">
      <mxGeometry x="-525" y="140" width="120" height="60" as="geometry" />
    </mxCell>
    <mxCell id="decision" value="count &lt;= 5?" style="rhombus;whiteSpace=wrap;html=1;fillColor=#fff2cc;strokeColor=#d6b656;" vertex="1" parent="1">
      <mxGeometry x="-525" y="320" width="120" height="60" as="geometry" />
    </mxCell>
    <mxCell id="increment" value="count += 1" style="rounded=1;whiteSpace=wrap;html=1;fillColor=#dae8fc;strokeColor=#6c8ebf;" vertex="1" parent="1">
      <mxGeometry x="-660" y="420" width="120" height="60" as="geometry" />
    </mxCell>
    <mxCell id="end" value="End" style="ellipse;whiteSpace=wrap;html=1;aspect=fixed;fillColor=#f8cecc;strokeColor=#b85450;" vertex="1" parent="1">
      <mxGeometry x="-390" y="420" width="120" height="60" as="geometry" />
    </mxCell>
    <mxCell id="edge_0" style="edgeStyle=orthogonalEdgeStyle;rounded=0;orthogonalLoop=1;jettySize=auto;html=1;endArrow=classic;startArrow=none;" edge="1" parent="1" source="start" target="init">
      <mxGeometry relative="1" as="geometry" />
    </mxCell>
    <mxCell id="edge_1" style="edgeStyle=orthogonalEdgeStyle;rounded=0;orthogonalLoop=1;jettySize=auto;html=1;endArrow=classic;startArrow=none;" edge="1" parent="1" source="init" target="decision">
      <mxGeometry relative="1" as="geometry" />
    </mxCell>
    <mxCell id="edge_2" value="Yes" style="edgeStyle=orthogonalEdgeStyle;rounded=0;orthogonalLoop=1;jettySize=auto;html=1;endArrow=classic;startArrow=none;" edge="1" parent="1" source="decision" target="increment">
      <mxGeometry relative="1" as="geometry" />
    </mxCell>
    <mxCell id="edge_3" value="No" style="edgeStyle=orthogonalEdgeStyle;rounded=0;orthogonalLoop=1;jettySize=auto;html=1;endArrow=classic;startArrow=none;" edge="1" parent="1" source="decision" target="end">
      <mxGeometry relative="1" as="geometry" />
    </mxCell>
    <mxCell id="edge_4" style="edgeStyle=orthogonalEdgeStyle;rounded=0;orthogonalLoop=1;jettySize=auto;html=1;endArrow=classic;startArrow=none;" edge="1" parent="1" source="increment" target="decision">
      <mxGeometry relative="1" as="geometry" />
    </mxCell>
  </root>
</mxGraphModel>
  </diagram>
</mxfile>